<?xml version="1.0" encoding="UTF-8" standalone="no"?>
<svg
   xmlns:dc="http://purl.org/dc/elements/1.1/"
   xmlns:cc="http://creativecommons.org/ns#"
   xmlns:rdf="http://www.w3.org/1999/02/22-rdf-syntax-ns#"
   xmlns:svg="http://www.w3.org/2000/svg"
   xmlns="http://www.w3.org/2000/svg"
   xmlns:sodipodi="http://sodipodi.sourceforge.net/DTD/sodipodi-0.dtd"
   xmlns:inkscape="http://www.inkscape.org/namespaces/inkscape"
   height="160"
   viewBox="0 0 160 160"
   width="160"
   version="1.1"
   id="svg48"
   sodipodi:docname="Pool.svg"
   onclick="window.top.location.href='/Guide/pool.htm'">
  <metadata>
    <rdf:RDF>
      <cc:Work>
        <dc:format>image/svg+xml</dc:format>
        <dc:type  rdf:resource="http://purl.org/dc/dcmitype/StillImage" />
      </cc:Work>
    </rdf:RDF>
  </metadata>
  <style type="text/css" >
      <![CDATA[

        .pool-icon-lines {  stroke: #e2cdf5;  fill:   #e2cdf5;
		   transition: all 1s ease;
        }
		
		.pool-icon-lines2 {  stroke: #cdb0f1;
		   transition: all 1s ease;
        }
		
		.pool-icon-lines3 {  stroke: #cdb0f1;
		   transition: all 1s ease;
        }
		
        #svg48:hover .pool-icon-lines  {  stroke: #f3d55b;  fill:   #f3d55b;
        }
		
		#svg48:hover .pool-icon-lines2  {  stroke: #f3d55b;
        }
		
		#svg48:hover .pool-icon-lines3 {
			stroke: #c68630;
		}
		
		.pool-icon-holes {
			fill:  #e2cdf5;
			fill-opacity: 1;
			transition: all 1s ease;
		}
		#svg48:hover .pool-icon-holes {
			fill-opacity: 0;
		}
		
		.pool-icon-solid {
			stroke: #e8dbf6;
			fill: #e8dbf6;
			transition: all 1s ease;
		}
		#svg48:hover .pool-icon-solid {
			fill:#c68630;
			stroke: #c68630;
		}
		
		.pool-icon-circle {
			fill-opacity: 0.11372549;
			transition: all 1s ease;
		}
		#svg48:hover .pool-icon-circle{
			fill-opacity: 0.2745098;
		}
		
		.pool-icon-innercircle {
			fill: #e8dbf6;
			transition: all 1s ease;
		}
		.pool-icon-innercircle2{
			fill: #e8dbf6;
			transition: all 1s ease;
		}
		#svg48:hover .pool-icon-innercircle {
			fill: #eeaf4b;
		}
		#svg48:hover .pool-icon-innercircle2 {
			fill: #dc9628;
		}
      ]]>
  </style>
  <circle
     style="opacity:1;fill:#fff3ff;fill-opacity:0.11372549;stroke:none;stroke-width:31.12527847;stroke-linecap:butt;stroke-linejoin:round;stroke-miterlimit:4;stroke-dasharray:none;stroke-dashoffset:0;stroke-opacity:1;paint-order:normal"
     id="path934"
     cx="80"
     cy="80"
     r="80" />
  <circle
     style="opacity:1;fill:#fff3ff;stroke:none;stroke-width:30.84275818;stroke-linecap:butt;stroke-linejoin:round;stroke-miterlimit:4;stroke-dasharray:none;stroke-dashoffset:0;stroke-opacity:1;paint-order:normal"
     class="pool-icon-circle"
	 id="path932"
     cx="80"
     cy="80"
     r="60" />
  <g
     transform="translate(41.333333,41.333333)"
     id="g46"
     style="fill:none;fill-rule:evenodd">
	<path
       d="m 21.602359,3.9816191 c 0.08,1.6453333 -0.748,3.304 -2.808,3.856 -1.162667,0.3106667 -2.156,0.1133333 -2.944,-0.372 C 3.3450253,16.616286 -2.9256413,32.816286 1.3263587,48.684286 c 0.576,2.152 1.3333333,4.206666 2.232,6.166666 3.684,-0.601333 5.5573333,3.888 3.692,6.36 9.1106663,12.701334 25.4413333,19.1 41.4320003,14.814667 9.664,-2.589333 17.486666,-8.618667 22.504,-16.417333 -1.124,-2.041334 -0.665334,-5.032 2.253333,-5.813334 0.302667,-0.08133 0.594667,-0.128 0.876,-0.144 3.214667,-7.637333 4.02,-16.358666 1.708,-24.982666 -5.526667,-20.6266669 -26.729333,-32.8680002 -47.356,-27.3413336 -2.484,0.6653334 -4.841333,1.564 -7.065333,2.6546667 z"
       id="path2"
	   class="pool-icon-solid" />
	<path d="m 59.972332,36.66557 c 0,15.096 -12.237334,27.333333 -27.333334,27.333333 -15.096,0 -27.333333,-12.237333 -27.333333,-27.333333 0,-15.096 12.237333,-27.3333336 27.333333,-27.3333336 15.096,0 27.333334,12.2373336 27.333334,27.3333336" 
		id="path3"
		class="pool-icon-innercircle2" />
	<path d="m 42.638998,35.332236 c 0,8.468 -6.865333,15.333334 -15.333333,15.333334 -8.468,0 -15.333333,-6.865334 -15.333333,-15.333334 0,-8.468 6.865333,-15.333333 15.333333,-15.333333 8.468,0 15.333333,6.865333 15.333333,15.333333" 
	   id="path3-5" 
	   class="pool-icon-innercircle" />
    <path
       d="m 28.667692,1.3269524 c -2.484,0.6653333 -4.841333,1.564 -7.065333,2.6546667 0.08,1.6453333 -0.748,3.304 -2.808,3.856 -1.162667,0.3106667 -2.156,0.1133333 -2.944,-0.372 C 3.3450253,16.616286 -2.9256413,32.816286 1.3263587,48.684286 c 0.576,2.152 1.3333333,4.206666 2.232,6.166666 3.684,-0.601333 5.5573333,3.888 3.692,6.36 9.1106663,12.701334 25.4413333,19.1 41.4320003,14.814667 9.664,-2.589333 17.486666,-8.618667 22.504,-16.417333 -1.124,-2.041334 -0.665334,-5.032 2.253333,-5.813334 0.302667,-0.08133 0.594667,-0.128 0.876,-0.144 3.214667,-7.637333 4.02,-16.358666 1.708,-24.982666 C 70.497025,8.0416191 49.294359,-4.1997142 28.667692,1.3269524 Z"
       id="path4"
	   class="pool-icon-lines3"
       style="stroke-width:2;stroke-linecap:round;stroke-linejoin:round" />
    <g
       id="g18"
       style="fill:#e2cdf5"
	   class="pool-icon-lines">
      <path
         d="m 3.9690253,3.0642857 c 0.1906667,0.7106667 -0.232,1.4426667 -0.9426666,1.6333334 -0.7106667,0.1906666 -1.4426667,-0.232 -1.6333334,-0.944 -0.1906666,-0.7106667 0.232,-1.4413333 0.9426667,-1.632 0.712,-0.1906667 1.4426667,0.2306667 1.6333333,0.9426667"
         id="path6" />
      <path
         d="m 14.635692,75.062952 c 0.190667,0.712 -0.230667,1.442667 -0.942667,1.633334 -0.710666,0.190666 -1.441333,-0.232 -1.632,-0.942667 -0.190666,-0.710667 0.230667,-1.442667 0.942667,-1.633333 0.710667,-0.190667 1.442667,0.232 1.632,0.942666"
         id="path8" />
      <path
         d="m 74.635692,68.397619 c 0.190667,0.710667 -0.230667,1.441333 -0.942667,1.632 -0.710666,0.190667 -1.442666,-0.230667 -1.633333,-0.942667 -0.189333,-0.710666 0.232,-1.442666 0.944,-1.633333 0.710667,-0.189333 1.441333,0.232 1.632,0.944"
         id="path10" />
      <path
         d="m 3.9690253,72.397619 c 0.1906667,0.710667 -0.2306666,1.441333 -0.9426666,1.632 -0.7106667,0.190667 -1.4426667,-0.230667 -1.6333334,-0.942667 -0.1893333,-0.710666 0.232,-1.442666 0.944,-1.633333 0.7106667,-0.189333 1.4413334,0.232 1.632,0.944"
         id="path12" />
      <path
         d="m 9.6943587,7.7922857 c 0.1906666,0.7106667 -0.232,1.4413334 -0.9426667,1.632 -0.712,0.1906667 -1.4426667,-0.2306666 -1.6333333,-0.9426666 -0.1906667,-0.7106667 0.232,-1.4426667 0.9426666,-1.6333334 0.712,-0.1906666 1.4426667,0.232 1.6333334,0.944"
         id="path14" />
      <path
         d="m 70.635692,4.3976191 c 0.190667,0.7106666 -0.232,1.4426666 -0.942667,1.6333333 -0.710666,0.1906667 -1.442666,-0.232 -1.633333,-0.944 -0.190667,-0.7106667 0.232,-1.4413333 0.942667,-1.632 0.712,-0.1906666 1.442666,0.2306667 1.633333,0.9426667"
         id="path16" />
    </g>
    <path
       d="m 67.817025,47.432286 c 3,-0.804 5.998667,-1.608 8.998667,-2.410667 m -39.593333,10.608 c 7.798666,-2.089333 15.597333,-4.178667 23.396,-6.268 m -51.8013337,13.88 c 6.5986667,-1.768 13.1959997,-3.536 19.7946667,-5.304 m 20.512,-22.061333 c -15.932,4.269333 -31.865333,8.538666 -47.7973333,12.808 m 74.6973333,-20.016 c -6.189333,1.66 -12.38,3.317333 -18.570667,4.976 m -5.5,33.222666 c -9.36,2.508 -18.718666,5.016 -28.078666,7.524 m 45.476,-12.185333 c -3.452,0.925333 -6.904,1.849333 -10.354667,2.774667 m -5.52,-62.0186669 -45.476,12.1853329 m 32.468,7.865334 c 9.657333,-2.588 19.314667,-5.176 28.972,-7.762667 m -54.177333,14.516 c 5.568,-1.492 11.134666,-2.984 16.702666,-4.474667 M 0.31835867,33.769619 C 2.3703587,33.220286 4.4210253,32.670952 6.471692,32.121619"
       id="path20"
       style="stroke-width:2;stroke-linecap:round;stroke-linejoin:round"
	   class="pool-icon-lines" />
    <path
       d="m 9.7863587,27.024286 c 4.9266663,-1.321334 6.9733333,6.32 2.0466663,7.64 -4.9266663,1.32 -6.9746663,-6.32 -2.0466663,-7.64 z"
       id="path22"
	   class="pool-icon-holes" />
    <path
       d="m 11.833025,34.664286 c -4.9266663,1.32 -6.9746663,-6.32 -2.0466663,-7.64 4.9266663,-1.321334 6.9733333,6.32 2.0466663,7.64 z"
       id="path24"
	   class="pool-icon-lines2"
       style="stroke-width:2;stroke-linecap:round;stroke-linejoin:round" />
    <path
       d="m 33.937025,60.489619 c -4.926666,1.32 -6.974666,-6.32 -2.046666,-7.64 4.926666,-1.32 6.973333,6.32 2.046666,7.64 z"
       id="path26"
	   class="pool-icon-holes" />
    <path
       d="m 33.937025,60.489619 c -4.926666,1.32 -6.974666,-6.32 -2.046666,-7.64 4.926666,-1.32 6.973333,6.32 2.046666,7.64 z"
       id="path28"
	   class="pool-icon-lines2"
       style="stroke-width:2;stroke-linecap:round;stroke-linejoin:round" />
    <path
       d="m 37.277025,28.306952 c -4.926666,1.32 -6.974666,-6.32 -2.048,-7.64 4.928,-1.32 6.974667,6.318667 2.048,7.64 z"
       id="path30"
	   class="pool-icon-holes" />
    <path
       d="m 37.277025,28.306952 c -4.926666,1.32 -6.974666,-6.32 -2.048,-7.64 4.928,-1.32 6.974667,6.318667 2.048,7.64 z"
       id="path32"
	   class="pool-icon-lines2"
       style="stroke-width:2;stroke-linecap:round;stroke-linejoin:round" />
    <path
       d="m 53.785025,59.865619 c 4.926667,-1.32 6.974667,6.32 2.048,7.641333 -4.926666,1.32 -6.974666,-6.32 -2.048,-7.641333 z"
       id="path34"
	   class="pool-icon-holes" />
    <path
       d="m 55.833025,67.506952 c -4.926666,1.32 -6.974666,-6.32 -2.048,-7.641333 4.926667,-1.32 6.974667,6.32 2.048,7.641333 z"
       id="path36"
	   class="pool-icon-lines2"
       style="stroke-width:2;stroke-linecap:round;stroke-linejoin:round" />
    <path
       d="m 54.158359,38.506952 c -4.926667,1.32 -6.973334,-6.32 -2.046667,-7.64 4.926667,-1.32 6.974667,6.32 2.046667,7.64 z"
       id="path38"
	   class="pool-icon-holes" />
    <path
       d="m 54.158359,38.506952 c -4.926667,1.32 -6.973334,-6.32 -2.046667,-7.64 4.926667,-1.32 6.974667,6.32 2.046667,7.64 z"
       id="path40"
	   class="pool-icon-lines2"
       style="stroke-width:2;stroke-linecap:round;stroke-linejoin:round" />
    <path
       d="m 64.593025,49.974952 c -4.926666,1.32 -6.973333,-6.32 -2.046666,-7.64 4.926666,-1.32 6.974666,6.32 2.046666,7.64 z"
       id="path42"
	   class="pool-icon-holes" />
    <path
       d="m 64.593025,49.974952 c -4.926666,1.32 -6.973333,-6.32 -2.046666,-7.64 4.926666,-1.32 6.974666,6.32 2.046666,7.64 z"
       id="path44"
	   class="pool-icon-lines2"
       style="stroke-width:2;stroke-linecap:round;stroke-linejoin:round" />
  </g>
</svg>
